<svg xmlns="http://www.w3.org/2000/svg">
      <symbol viewBox="0 0 27 17" id="icon-vk">
        <path d="M0 2.34C0 1.48.52 1.02 1.55.96l3.97.02c.26 0
        .44.13.53.38.4 1.26.86 2.34 1.37 3.25.5.92 1.17 1.97 1.99 3.16.07.15.18.23.34.23.13 0 .22-.06.3-.18l.07-.28.03-4.35c0-.3-.07-.5-.23-.6-.15-.1-.43-.18-.83-.23-.32-.05-.48-.23-.48-.55 0-.07 0-.12.02-.15C9.01.57 10.07.03 11.83.03l1.5-.03C14 0 14.55.16 15 .48c.44.32.67.82.67 1.5V7.7c.12.08.24.12.34.12.27 0 .5-.15.7-.45 1.95-2.58 3-4.31 3.17-5.18 0-.02.01-.06.05-.13.12-.25.33-.47.61-.65.29-.19.53-.31.75-.38a.55.55 0 0 1 .24-.05h4.13l.26.03c.36 0 .63.16.83.47.07.1.12.21.15.33a2.4 2.4 0 0 1 .06.55v.18a6.11 6.11 0 0 1-.94 2.2c-.5.78-1.15 1.62-1.93 2.53-.79.9-1.27 1.5-1.47 1.78-.16.2-.24.39-.24.56 0 .13.07.28.21.45l3.9 4.63c.2.26.31.56.31.88 0
        .38-.16.7-.48.95-.32.25-.7.4-1.14.43l-.46.02h-4.04c-.02 0-.06 0-.11.02a.86.86 0 0 1-.1.01c-.4 0-.76-.16-1.1-.48-.12-.13-.96-1.12-2.5-2.97a1.39 1.39 0 0 0-.38-.32 38.47 38.47 0 0 0-.53 2.24l-.08.42a1.4 1.4 0 0 1-1.12 1.06l-.37.02h-2.61c-1.48 0-2.95-.63-4.41-1.9a19.3 19.3 0 0 1-3.96-4.95A47.51 47.51 0 0 1 .13 3.07 1.92 1.92 0 0 1 0 2.34Zm16.01 6.51c-.37 0-.7-.1-1.01-.29a.9.9 0 0 1-.45-.79V2c0-.34-.1-.58-.27-.72-.18-.14-.49-.21-.93-.21l-1.52.05c-.76 0-1.34.12-1.73.37.78.36 1.17.93 1.17 1.71v4.43a1.5 1.5 0 0 1-.53 1.04c-.32.28-.68.42-1.07.42-.53 0-.94-.24-1.22-.73a26.16 26.16 0 0 1-3.1-5.63l-.23-.66-3.55-.02c-.23 0-.36.01-.38.03-.03.03-.04.1-.04.22 0
        .15.01.3.05.48l.56 1.4c1.49 3.64 3.11 6.51 4.86 8.6 1.75 2.1 3.47 3.15 5.16 3.15h2.66c.1 0 .19-.03.24-.09.05-.06.1-.17.13-.34l.06-.25.5-2.21c.15-.3.27-.5.38-.6.2-.2.42-.28.69-.28.43 0 .86.24 1.3.73l2.27 2.71c.14.22.3.33.45.33h4.4c.53 0 .8-.13.8-.38a.47.47 0 0 0-.08-.25l-3.87-4.55c-.3-.35-.45-.73-.45-1.13 0-.4.14-.8.43-1.16.23-.34.68-.9 1.34-1.67.67-.78 1.25-1.51 1.75-2.19.5-.68.82-1.3.98-1.85l.08-.33a.37.37 0 0 1-.02-.16c0-.07-.01-.14-.03-.19h-4.18c-.27.1-.48.25-.64.45L20.8 3c-.45 1.16-1.6 2.94-3.5 5.36-.36.33-.8.5-1.3.5Z"/>
      </symbol>

      <symbol viewBox="0 0 24 19" id="icon-youtube">
        <path d="m15.85 8.8-5.24-3.5a.65.65 0 0 0-1.01.55v6.98a.65.65 0 0 0 1.01.54l5.24-3.49a.65.65 0 0 0 0-1.09Zm-4.94 2.8V7.08l3.4 2.27-3.4 2.27Zm12.48-8.56a2.4 2.4 0 0 0-1.45-1.63C18.22-.02 12.25 0 12 0S5.78-.02 2.06 1.4A2.4 2.4 0 0 0 .61 3.05 25.32 25.32 0 0 0 0 9.34c0 3.26.33 5.22.61 6.3a2.4 2.4 0 0 0 1.45 1.63c3.72 1.43 9.69 1.4 9.94 1.4h.08c.75 0 6.31-.04 9.86-1.4a2.4 2.4 0 0 0 1.45-1.64c.28-1.07.61-3.03.61-6.3 0-3.25-.33-5.22-.61-6.29Zm-1.27 12.27a1.1 1.1 0 0 1-.65.74c-3.5 1.34-9.4 1.32-9.47 1.32-.07 0-5.98.02-9.47-1.32a1.09 1.09 0 0 1-.65-.74c-.27-1-.57-2.85-.57-5.97 0-3.12.3-4.97.57-5.97a1.1 1.1 0 0 1 .65-.74C6.03 1.29 11.93 1.3 12 1.3c.07 0 5.98-.02
        9.47 1.32a1.1 1.1 0 0 1 .65.74c.27 1 .57 2.85.57 5.97 0 3.12-.3 4.96-.57 5.97Z"/>
      </symbol>

      <symbol viewBox="0 0 28 22" id="icon-telegram">
        <path fill-rule="evenodd" clip-rule="evenodd" d="M23.4608 3.153a.6565.6565 0 0 1 .2264.6115l-2.6261 15.7569a.6564.6564 0 0 1-1.0118.4383l-7.8785-5.2523a.6566.6566 0 0 1-.1485-.9564l2.6107-3.2633-4.36 2.9067a.6566.6566 0 0 1-.6578.0409L4.363 10.8092a.6566.6566 0 0 1 .0728-1.2056l18.3831-6.5653a.6566.6566 0 0 1 .642.1146ZM6.3263 10.3227l3.5354 1.7677 7.5614-5.041a.6565.6565 0 0 1 .8769.9564l-4.805 6.0062 6.4378 4.2918 2.2755-13.6533-15.882 5.6722Z"/>
      </symbol>

      <symbol viewBox="0 0 27 34" id="icon-html-academy">
        <path d="M13.6426.0158 13.5 0 0 1.4073V26.013L13.5 34 27 26.0129V1.4073L13.6426.0158ZM25.2344 25.015 13.5 31.9573 1.7656 25.0151V14.9293l11.6851 6.9158.0194 1.2533-8.0166-4.7436-.0106 1.2253 8.0465 4.8084.0194 1.2865-8.0447-4.7576-.0106 1.2253L13.5 26.9511l8.1239-4.8329V16.909l3.6193-2.1495-.0088 10.2556Zm0-11.5632-3.2197 1.88-1.4822.8752-7.0659-4.187-.0106 1.2253 6.0397 3.5726-.0528.0315-.1303.0752-.859.4919-4.987-2.9477-.0106 1.2253 3.9361 2.328-.933.6092-.0211.0122-2.9714-1.7416-.0106 1.2253 1.9469 1.1342-1.9874 1.1868-11.6182-6.8721 11.6376-6.9579 11.7995 6.8336Zm0-1.2253L13.4401 5.3108 1.7656 12.2195V2.9897L13.5 1.7644l11.7344 1.2253v9.2369Z"/>
      </symbol>

      <symbol viewBox="0 0 20 20" id="icon-phone">
        <path d="M17.76 9.4H9.62v1.2h8.14l-2.01 2.1.86.9 2.97-3.1a.77.77 0 0 0 0-.9L16.6 6.5l-.86.9 2 2ZM8.37 19.4v-6.2a.66.66 0 0 0-.18-.41.61.61 0 0 0-.4-.19H3.6c0 .32.12.62.34.84.21.23.5.35.8.36h2.4v5H3.59a1.65 1.65 0 0 1-1.25-.45 1.79 1.79 0 0 1-.57-1.25v-14c-.01-.46.16-.91.46-1.25.3-.33.72-.53 1.17-.55h3.73v5h-2.3c-.3 0-.6.13-.8.36-.22.22-.34.52-.35.84H7.9a.61.61 0 0 0 .4-.19c.1-.1.17-.25.18-.41V.6a.86.86 0 0 0-.25-.4.8.8 0 0 0-.42-.2H3.59a2.76 2.76 0 0 0-2.06.8 3 3 0 0 0-.91 2.1v13.9a3 3 0 0 0 .74 2.18 2.77 2.77 0 0 0 2.04.92h4.4a.46.46 0 0 0 .4-.1.5.5 0 0 0 .17-.4Z"/>
      </symbol>

      <symbol viewBox="0 0 19 14" id="icon-email" fill="none">
        <path  stroke-width="1.3" d="M1.19 6v8M18.19 6v8M.54 13.35h18M.54 1.35h18M17.89 3.18l-8.35 6.5-8.35-6.5V1.65h16.7v1.53Z"/>
      </symbol>
    </svg>
